<!DOCTYPE svg PUBLIC "-//W3C//DTD SVG 20010904//EN" "http://www.w3.org/TR/2001/REC-SVG-20010904/DTD/svg10.dtd">
<svg version="1.0" xmlns="http://www.w3.org/2000/svg" width="200px" height="50px" viewBox="0 0 2000 500" preserveAspectRatio="xMidYMid meet">
<g id="layer101" fill="#000000" stroke="none">
 <path d="M115 486 c-75 -34 -115 -110 -115 -219 0 -126 58 -211 163 -238 46 -11 75 -8 133 17 7 3 14 -7 18 -21 13 -52 26 -23 26 61 0 94 -12 107 -36 39 -23 -70 -73 -92 -133 -60 -91 47 -108 290 -26 372 26 26 41 33 73 33 46 0 88 -33 97 -77 11 -46 14 -53 25 -53 35 0 -15 122 -59 144 -37 19 -125 20 -166 2z"/>
 <path d="M418 484 c-91 -49 -72 -210 29 -242 111 -36 208 62 171 173 -25 74 -126 110 -200 69z m87 -30 c41 -44 57 -169 24 -190 -52 -32 -116 127 -79 197 14 25 26 24 55 -7z"/>
 <path d="M667 482 c-15 -16 -17 -45 -17 -200 0 -175 -1 -182 -20 -182 -30 0 -24 -19 8 -26 35 -9 62 -32 62 -56 0 -10 7 -18 15 -18 13 0 15 33 15 235 0 204 2 235 15 235 9 0 18 -12 22 -30 3 -16 9 -30 14 -30 17 0 9 57 -9 73 -25 23 -85 22 -105 -1z"/>
 <path d="M816 478 c-13 -18 -16 -56 -16 -200 0 -171 -1 -178 -20 -178 -34 0 -22 -19 20 -30 33 -9 42 -16 47 -40 3 -17 12 -30 19 -30 12 0 14 42 14 235 0 204 2 235 15 235 9 0 18 -12 22 -30 7 -38 23 -39 23 -1 0 40 -24 61 -70 61 -29 0 -43 -6 -54 -22z"/>
 <path d="M1001 474 c-58 -48 -62 -152 -8 -202 72 -67 197 -36 197 49 0 33 -14 39 -96 39 -61 0 -64 1 -64 25 0 64 50 106 98 83 15 -7 31 -23 37 -36 13 -30 33 -28 27 3 -12 66 -130 90 -191 39z m118 -158 c15 -18 -2 -56 -24 -56 -17 0 -55 39 -55 57 0 18 64 17 79 -1z"/>
 <path d="M1236 484 c-13 -13 -16 -46 -16 -200 0 -177 -1 -184 -20 -184 -32 0 -23 -19 13 -28 22 -5 37 -17 47 -40 20 -43 30 -40 30 8 l0 40 40 0 c48 0 51 10 7 30 -41 19 -45 36 -46 200 -1 144 8 180 34 146 8 -11 15 -26 15 -33 0 -7 5 -13 10 -13 15 0 12 43 -6 68 -18 27 -84 31 -108 6z"/>
 <path d="M1396 484 c-13 -12 -16 -38 -16 -120 0 -86 -3 -104 -15 -104 -25 0 -17 -14 18 -30 22 -10 35 -26 42 -47 5 -18 13 -33 17 -33 4 0 9 71 10 157 2 116 6 157 16 161 7 2 17 -9 23 -27 6 -17 15 -31 20 -31 15 0 10 44 -7 68 -18 27 -84 31 -108 6z"/>
 <path d="M1601 478 c-28 -75 -76 -184 -83 -193 -5 -6 -11 -1 -14 13 -7 26 -34 30 -34 4 0 -47 60 -83 101 -61 18 9 45 58 73 134 7 17 10 13 26 -25 31 -80 33 -90 16 -90 -9 0 -16 -4 -16 -10 0 -5 23 -10 50 -10 28 0 50 5 50 10 0 6 -8 10 -18 10 -14 0 -29 28 -64 118 -46 121 -69 147 -87 100z"/>
 <path d="M1792 480 c-38 -23 -52 -54 -52 -114 0 -123 155 -179 234 -85 48 57 30 171 -34 204 -41 21 -108 19 -148 -5z m79 -13 c66 -50 71 -226 5 -201 -44 17 -78 161 -46 198 15 19 20 19 41 3z"/>
 <path d="M1327 204 c-15 -15 -7 -63 13 -74 33 -17 62 4 58 43 -3 27 -7 32 -33 35 -17 2 -34 0 -38 -4z"/>
 </g>

</svg>